:SAMPLES-PER-SECOND 30
:FULLY-SPECIFIED
:DEGREES
145
root  21.9571 39.3692 -1.66413 -119.225 -86.1016 112.205
RightUpLeg  -19.0369 -9.05732 -3.24424
RightLeg  8.90884 -0.155808 1.35504
RightFoot  2.84813 -0.797139 6.55785
RightToes  5.82063e-011 0 -3.6325e-017
Spine  7.24199 -2.52788 -4.68694
Spine1  10.6896 -3.44672 1.47686
HEad  -4.48808 7.32259 -5.06269
LeftShoulder1  8.86191 -12.7879 -47.4729
LeftArm  -0.207715 -10.8127 -22.3109
LeftForeArm  19.636 -24.1394 -4.10789
LeftHand  -0.244104 0.0205437 5.32207
RightShoulder  6.44456 9.99604 41.5075
RightArm  -3.45077 -23.5674 28.3297
RightForeArm  12.2581 7.23947 7.30476
RightHand  -0.629032 0.294997 -12.9047
LeftUpLeg  12.7991 5.28005 -5.07216
LeftLeg  9.9386 12.12 -3.93914
LeftFoot  -15.7471 0.210719 3.0374
LeftToes  4.36525e-011 -9.98543e-011 1.0027e-011
146
root  20.4168 39.0825 -1.67946 -106.25 -85.9035 99.2078
RightUpLeg  -17.4131 -6.23287 -5.1678
RightLeg  -1.58338 -4.69003 4.54415
RightFoot  1.61463 -0.852629 7.61137
RightToes  5.82063e-011 0 -3.6325e-017
Spine  6.87116 -2.79327 -4.95936
Spine1  10.7398 -3.75073 1.80212
HEad  -3.69816 6.75147 -4.62139
LeftShoulder1  8.81625 -12.7992 -47.1907
LeftArm  -0.969297 -13.1009 -22.1802
LeftForeArm  20.3575 -26.045 -4.50313
LeftHand  -0.244104 0.0205437 5.32207
RightShoulder  6.45955 10.0418 41.4601
RightArm  -5.12037 -23.8511 28.2404
RightForeArm  12.7977 5.3709 6.68536
RightHand  -0.593328 0.000534081 -12.8168
LeftUpLeg  15.3564 5.76449 -4.97204
LeftLeg  10.2594 10.6589 -4.15822
LeftFoot  -17.7907 0.215544 1.96597
LeftToes  4.36525e-011 -9.98543e-011 1.0027e-011
147
root  18.812 38.7376 -1.72585 -95.0789 -85.7491 87.8271
RightUpLeg  -17.1241 -6.90326 -5.12663
RightLeg  -4.57123 -6.25119 5.62212
RightFoot  0.0289658 -0.793834 7.91677
RightToes  5.82063e-011 0 -3.6325e-017
Spine  6.78288 -2.94673 -4.97747
Spine1  10.7244 -3.99817 2.17653
HEad  -3.42775 6.03106 -4.66252
LeftShoulder1  8.79033 -12.8367 -46.939
LeftArm  -1.57814 -14.4025 -22.3912
LeftForeArm  21.4904 -28.2785 -4.94124
LeftHand  -0.244104 0.0205437 5.32207
RightShoulder  6.45517 10.0396 41.4371
RightArm  -6.7535 -23.9857 28.1002
RightForeArm  12.6458 4.49164 6.14326
RightHand  -0.581551 -0.0826292 -12.7538
LeftUpLeg  17.7691 7.00052 -4.26466
LeftLeg  11.65 8.35705 -3.97749
LeftFoot  -19.768 0.170238 0.681176
LeftToes  4.36525e-011 -9.98543e-011 1.0027e-011
148
root  17.1868 38.5198 -1.795 -85.9429 -85.9733 78.6824
RightUpLeg  -17.4725 -6.7704 -4.50954
RightLeg  -1.93546 -10.6455 5.47885
RightFoot  0.929082 -0.537966 5.1576
RightToes  5.82063e-011 0 -3.6325e-017
Spine  6.51194 -3.0261 -4.42435
Spine1  11.1644 -4.35104 2.95484
HEad  -3.62919 5.46154 -5.1289
LeftShoulder1  8.80071 -12.8819 -46.8631
LeftArm  -2.34778 -14.2911 -22.7063
LeftForeArm  23.484 -31.1685 -5.50843
LeftHand  -0.244104 0.0205437 5.32207
RightShoulder  6.42562 9.98934 41.3982
RightArm  -7.83686 -23.708 27.8712
RightForeArm  11.5046 4.44825 5.89765
RightHand  -0.598476 0.0276714 -12.8639
LeftUpLeg  19.9214 9.24507 -2.60596
LeftLeg  13.1551 5.1247 -3.32664
LeftFoot  -20.0395 0.0920639 -0.370365
LeftToes  4.36525e-011 -9.98543e-011 1.0027e-011
149
root  15.4415 38.3837 -1.86985 -71.6411 -86.5937 64.5207
RightUpLeg  -18.383 -7.83344 -3.11164
RightLeg  3.81216 -14.0121 4.18765
RightFoot  4.68338 -0.0106458 0.371911
RightToes  5.82063e-011 0 -3.6325e-017
Spine  5.68399 -3.3887 -2.89521
Spine1  11.7212 -4.84873 3.40385
HEad  -3.66828 5.23697 -5.79708
LeftShoulder1  8.88558 -12.9067 -47.2514
LeftArm  -2.90372 -12.4678 -22.7413
LeftForeArm  26.0165 -34.4695 -6.18576
LeftHand  -0.244104 0.0205437 5.32207
RightShoulder  6.42404 9.9383 41.5565
RightArm  -8.17521 -22.9964 27.3955
RightForeArm  10.1287 4.74034 5.91563
RightHand  -0.63663 0.244738 -13.1702
LeftUpLeg  21.7974 12.1942 0.173518
LeftLeg  15.259 0.782422 -2.21291
LeftFoot  -19.3731 -0.0697523 -2.63234
LeftToes  4.36525e-011 -9.98543e-011 1.0027e-011
150
root  13.5949 38.3366 -1.91009 -39.1531 -87.9438 32.0676
RightUpLeg  -19.4416 -12.4038 0.347388
RightLeg  9.8904 -10.6267 2.29063
RightFoot  8.50609 0.74134 -3.94075
RightToes  5.82063e-011 0 -3.6325e-017
Spine  4.73779 -3.78435 0.814763
Spine1  11.9419 -4.92885 2.69895
HEad  -2.969 5.30602 -6.54454
LeftShoulder1  9.02761 -12.9003 -48.038
LeftArm  -2.87836 -9.04123 -22.6848
LeftForeArm  28.4972 -37.3068 -6.79456
LeftHand  -0.244104 0.0205437 5.32207
RightShoulder  6.46051 9.90636 41.9169
RightArm  -8.19332 -22.0083 26.8098
RightForeArm  9.83357 5.01653 5.95521
RightHand  -0.6705 0.511282 -13.2634
LeftUpLeg  23.3366 14.3524 3.77913
LeftLeg  18.05 -2.54495 -1.14538
LeftFoot  -17.6841 -0.267581 -6.90764
LeftToes  4.36525e-011 -9.98543e-011 1.0027e-011
151
root  11.7441 38.4028 -1.94689 41.4429 -88.9622 -48.5223
RightUpLeg  -20.1947 -17.3218 4.87965
RightLeg  15.0611 -3.76123 0.951579
RightFoot  8.82152 1.26545 -6.80804
RightToes  5.82063e-011 0 -3.6325e-017
Spine  4.07793 -3.64084 5.83915
Spine1  11.7625 -4.19066 1.32786
HEad  -1.71078 5.56277 -7.28667
LeftShoulder1  9.11917 -12.8299 -48.7401
LeftArm  -2.5524 -4.45941 -23.2116
LeftForeArm  30.2559 -38.8856 -7.13208
LeftHand  -0.244104 0.0205437 5.32207
RightShoulder  6.50021 9.92229 42.1394
RightArm  -8.40105 -20.6785 26.5534
RightForeArm  10.5299 5.21876 5.89791
RightHand  -0.668695 0.692412 -12.8474
LeftUpLeg  23.0096 14.2985 6.7023
LeftLeg  23.1489 -1.67385 -0.350848
LeftFoot  -12.6265 -0.0400546 -10.7057
LeftToes  4.36525e-011 -9.98543e-011 1.0027e-011
152
root  9.99453 38.5034 -2.05341 109.033 -87.1439 -115.826
RightUpLeg  -20.0412 -19.2298 7.97019
RightLeg  19.0987 -0.00125861 0.25367
RightFoot  5.49606 1.21284 -7.89499
RightToes  5.82063e-011 0 -3.6325e-017
Spine  3.6087 -3.11845 9.63177
Spine1  11.4742 -3.20911 0.676531
HEad  -0.673077 5.78197 -7.72704
LeftShoulder1  9.10245 -12.6965 -49.0512
LeftArm  -2.19481 0.350178 -24.5812
LeftForeArm  30.4912 -38.732 -7.07478
LeftHand  -0.244104 0.0205437 5.32207
RightShoulder  6.53552 10.0129 42.0806
RightArm  -8.8698 -18.7446 26.8475
RightForeArm  10.5959 5.65718 5.87777
RightHand  -0.657855 0.776729 -12.4786
LeftUpLeg  19.1294 13.7175 8.5804
LeftLeg  32.355 1.08507 1.12983
LeftFoot  -2.35879 0.837293 -10.876
LeftToes  4.36525e-011 -9.98543e-011 1.0027e-011
153
root  8.48427 38.5642 -2.21596 98.2878 -85.4639 -104.508
RightUpLeg  -19.0601 -19.428 9.3388
RightLeg  21.5664 -0.167777 0.0598189
RightFoot  1.51695 0.837735 -7.30876
RightToes  5.82063e-011 0 -3.6325e-017
Spine  3.38692 -2.87864 12.0132
Spine1  11.4835 -2.75515 1.26688
HEad  -0.385054 5.47059 -7.50702
LeftShoulder1  9.07981 -12.6164 -49.1721
LeftArm  -1.16878 4.06592 -26.2537
LeftForeArm  28.7517 -36.3298 -6.51919
LeftHand  -0.244104 0.0205437 5.32207
RightShoulder  6.57711 10.1103 42.0425
RightArm  -9.27466 -16.1899 27.427
RightForeArm  9.07921 6.92647 6.08312
RightHand  -0.70078 0.971171 -12.8841
LeftUpLeg  12.0794 11.8091 9.54468
LeftLeg  43.6605 3.16284 3.6228
LeftFoot  9.56754 1.47764 -8.3194
LeftToes  4.36525e-011 -9.98543e-011 1.0027e-011
154
root  7.14215 38.6423 -2.37233 80.5507 -84.1133 -86.4699
RightUpLeg  -17.4378 -19.8018 9.67737
RightLeg  22.9367 -1.58011 0.362127
RightFoot  -1.35732 0.538939 -6.27691
RightToes  5.82063e-011 0 -3.6325e-017
Spine  3.66143 -2.9783 13.9941
Spine1  11.6351 -2.59885 1.96533
HEad  -0.645242 4.31553 -6.62076
LeftShoulder1  9.18544 -12.7188 -49.4302
LeftArm  1.66829 5.99385 -27.5424
LeftForeArm  25.3595 -31.4697 -5.44742
LeftHand  -0.244104 0.0205437 5.32207
RightShoulder  6.61285 10.1213 42.251
RightArm  -8.88726 -13.3097 27.9118
RightForeArm  6.52242 9.33704 6.46722
RightHand  -0.794123 1.34689 -13.7968
LeftUpLeg  4.38075 8.43514 9.91001
LeftLeg  53.9609 3.80659 6.05963
LeftFoot  15.5337 1.30385 -5.80553
LeftToes  4.36525e-011 -9.98543e-011 1.0027e-011
